<?xml version="1.0" encoding="UTF-8"?>
<svg id="_图层_1" data-name="图层_1" xmlns="http://www.w3.org/2000/svg" version="1.1" viewBox="0 0 1451.34 1451.34">
  <!-- Generator: Adobe Illustrator 29.1.0, SVG Export Plug-In . SVG Version: 2.1.0 Build 142)  -->
  <defs>
    <style>
      .st0 {
        fill: #e60012;
        stroke: #231815;
        stroke-width: 1.19px;
      }

      .st0, .st1 {
        stroke-miterlimit: 10;
      }

      .st2 {
        fill: #fff100;
      }

      .st1 {
        fill: none;
        stroke: #fff100;
        stroke-width: 23.05px;
      }
    </style>
  </defs>
  <rect class="st0" width="1451.34" height="1451.34"/>
  <polygon class="st1" points="751.41 89.14 803.92 250.75 973.85 250.75 836.37 350.64 888.89 512.25 751.41 412.37 613.93 512.25 666.44 350.64 528.96 250.75 698.89 250.75 751.41 89.14"/>
  <path id="com" class="st2" d="M1056.51,1196.33c-.37,3.64-43.85,47.37-56.82,46-20.38-2.15-80.52-85.73-86.59-86.59-5.15-.73-68.29,43.4-92,48.7-112.42,25.14-186.59-13.14-270.58-81.17-22.23,11.81-92.94,112.03-113.64,108.23-4.9-.9-60.45-60.68-73.06-67.65,46.29-31.15,143.39-188.1,202.94-170.47,5.16,1.53,37.58,56.8,54.12,70.35,52.91,43.36,157.23,67.16,213.76,18.94l-235.41-235.41c-10.98-1.15-70.18,82.87-86.59,81.17-8.6-.89-101.45-97.47-116.35-110.94l192.11-208.35,132.58,110.94c-9.7,10.56-70.8,68.2-70.35,75.76,1.02,17.19,219.91,210.01,246.23,240.82,127.38-150.18,58.92-342.15-92-443.75,237.78,45.86,341.66,338.88,159.64,511.4,9.75,17.62,93.22,79.99,92,92Z"/>
</svg>